<svg xmlns="http://www.w3.org/2000/svg" viewBox="0 0 234.82 95.77"><defs><style>.cls-1{fill:#141a29;}.cls-2{fill:none;}.cls-3{fill:#15b2a9;}.cls-4{fill:#e73042;}</style></defs><g id="Main"><path class="cls-1" d="M35.3,60.14a14.64,14.64,0,0,0,2.88-.61,13,13,0,0,0,.14-2V47a24.4,24.4,0,0,0-2.7-.46,3.35,3.35,0,0,1-.07-1.44,19.15,19.15,0,0,1,2.77-.44v-.32c0-6.05,2.38-10.19,7.71-10.19A16.42,16.42,0,0,1,53.41,36a9.7,9.7,0,0,1-1.19,4.86,2.35,2.35,0,0,1-1.84,0,10.27,10.27,0,0,1-.65-3.78,11.35,11.35,0,0,0-4.21-.58,4.73,4.73,0,0,0-2.77.65c-.68.79-1.4,2.92-1.4,6.44v1.16h5a61.11,61.11,0,0,0,6.16-.4l.28.29c-.1,3.6-.14,6.41-.14,10.37v1.79c0,1,0,1.84.11,2.7a10.28,10.28,0,0,1,2.7.65,5.28,5.28,0,0,1-.22,1.62c-1,0-3.17-.07-4-.07-1.48,0-3,.07-4.36.07a4.87,4.87,0,0,1-.25-1.62,13.81,13.81,0,0,0,2.88-.65,11.68,11.68,0,0,0,.15-2V47H41.35v9.79c0,1,0,1.84.1,2.7a10.37,10.37,0,0,1,2.7.65,5.49,5.49,0,0,1-.21,1.62c-1.44,0-2.85-.07-4-.07-1.48,0-2.88.07-4.36.07A4.87,4.87,0,0,1,35.3,60.14Z"/><path class="cls-1" d="M57.12,60.14A14.53,14.53,0,0,0,60,59.53a13.09,13.09,0,0,0,.15-2V37.39a20.7,20.7,0,0,0-2.84-.57,3.1,3.1,0,0,1-.15-1.41A25.83,25.83,0,0,1,63,34.15l.29.29c-.11,3.6-.15,6.41-.15,10.37v12c0,1,0,1.84.11,2.7a10.28,10.28,0,0,1,2.7.65,5,5,0,0,1-.22,1.62c-1,0-3.16-.07-4-.07-1.47,0-3,.07-4.35.07A4.62,4.62,0,0,1,57.12,60.14Z"/><path class="cls-1" d="M68,60.14a14.64,14.64,0,0,0,2.88-.61,13,13,0,0,0,.14-2V47.69a15.73,15.73,0,0,0-2.84-.58,3.25,3.25,0,0,1-.14-1.4,19.55,19.55,0,0,1,5.11-1.3l.29.25c.14.44.28,1.3.46,2.09a8.06,8.06,0,0,1,5.48-2.45c2.23,0,3.74.9,4.39,2.81a8.28,8.28,0,0,1,5.83-2.81c3.17,0,4.82,1.77,4.82,5.76v6.73c0,1,0,1.84.11,2.7a10.28,10.28,0,0,1,2.7.65,4.24,4.24,0,0,1-.25,1.62c-.94,0-3.13-.07-4-.07-1.47,0-3,.07-4.35.07a4.59,4.59,0,0,1-.26-1.62,14.64,14.64,0,0,0,2.88-.61,13.09,13.09,0,0,0,.15-2v-6c0-2.7-.29-4.68-3.13-4.68A8,8,0,0,0,84,48.37a12.51,12.51,0,0,1,.11,1.69v6.73c0,1,0,1.84.07,2.7a8.15,8.15,0,0,1,2.34.65,6.59,6.59,0,0,1-.18,1.62c-1,0-2.81-.07-3.67-.07-1.48,0-3,.07-4,.07a4.78,4.78,0,0,1-.28-1.62A18.1,18.1,0,0,0,81,59.53a13.09,13.09,0,0,0,.15-2v-6c0-2.7-.29-4.68-3.14-4.68a7.48,7.48,0,0,0-4,1.47v8.53c0,1,0,1.84.11,2.7a10.28,10.28,0,0,1,2.7.65,5.28,5.28,0,0,1-.22,1.62c-1,0-3.17-.07-4-.07-1.48,0-3,.07-4.36.07A4.87,4.87,0,0,1,68,60.14Z"/><path class="cls-2" d="M104.92,31.13V69.21h-3.06V31.13Z"/><path class="cls-1" d="M109.75,60.14a14.8,14.8,0,0,0,2.88-.61,14.4,14.4,0,0,0,.14-2V37.39a19.56,19.56,0,0,0-2.84-.57,3.1,3.1,0,0,1-.15-1.41,25.83,25.83,0,0,1,5.87-1.26l.29.29c-.11,3.6-.15,6.41-.15,10.37v7.38a25.13,25.13,0,0,0,2.92-1.26l3.31-4-2.23-.54a5.46,5.46,0,0,1,.25-1.62c1.15,0,2.81.07,4.39.07.87,0,2,0,3-.07a5.15,5.15,0,0,1,.21,1.59,10.38,10.38,0,0,1-2.41.68L120.65,52a38.8,38.8,0,0,0,4,6.41,3.56,3.56,0,0,0,3,1.55,6.4,6.4,0,0,0,1.15-.11,1.67,1.67,0,0,1,.39,1.4,13.33,13.33,0,0,1-4.5.87c-2.52,0-4.89-4.4-6.26-8.68l-2.63.72v2.66c0,1,0,1.84.11,2.7a10.28,10.28,0,0,1,2.7.65,5,5,0,0,1-.22,1.62c-1,0-3.16-.07-4-.07-1.47,0-3,.07-4.35.07A4.62,4.62,0,0,1,109.75,60.14Z"/><path class="cls-1" d="M130.23,53.56c0-4.36,3-9.26,8-9.26,5.22,0,7.6,3.75,7.6,8.68,0,4.35-3,9.25-8,9.25S130.23,58.59,130.23,53.56ZM141,59.13a7.73,7.73,0,0,0,1.8-5.14c0-3.06-1.33-7.27-5.19-7.27a4.49,4.49,0,0,0-2.48.68,7.76,7.76,0,0,0-1.8,5.15c0,3.06,1.33,7.27,5.18,7.27A4.43,4.43,0,0,0,141,59.13Z"/><path class="cls-1" d="M148.37,60.14a14.64,14.64,0,0,0,2.88-.61,13.09,13.09,0,0,0,.15-2V47.69a16,16,0,0,0-2.85-.58,3.25,3.25,0,0,1-.14-1.4,19.65,19.65,0,0,1,5.11-1.3l.29.25a27.85,27.85,0,0,1,.61,3.14c1.12-1.77,2.81-3.39,5-3.39a8.8,8.8,0,0,1,2.92.47,24.82,24.82,0,0,1-.65,6.19,2.73,2.73,0,0,1-1.87,0,33.87,33.87,0,0,0-.43-4,5.58,5.58,0,0,0-.94-.08c-1.37,0-2.55.44-4,2.81v7c0,1,0,1.84.11,2.7a21.72,21.72,0,0,1,4.25.65,5.28,5.28,0,0,1-.22,1.62c-1.33,0-4.39-.07-5.58-.07-1.47,0-3,.07-4.35.07A4.59,4.59,0,0,1,148.37,60.14Z"/><path class="cls-1" d="M166.27,57.08V47c-.69-.14-1.77-.36-2.7-.46a3.21,3.21,0,0,1-.08-1.44,17.72,17.72,0,0,1,2.78-.44l1.18-4.89a4.17,4.17,0,0,1,1.84.21v4.76l5.61.07a14.07,14.07,0,0,1-.14,2.19h-5.47v8.71c0,2.63.54,4,1.69,4a9.8,9.8,0,0,0,3.56-.75,2.17,2.17,0,0,1,.62,1.62,11.5,11.5,0,0,1-5.58,1.69C167.13,62.23,166.27,60.39,166.27,57.08Z"/><path class="cls-1" d="M176.78,53.52c0-4.46,3.2-9.22,7.77-9.22,5,0,6.41,3.32,6.41,6.45a11.9,11.9,0,0,1-.18,2.23l-.29.29c-1.47,0-3.81-.07-6.51-.07H179.8c.18,2.91,1.37,6.44,4.9,6.44a16.24,16.24,0,0,0,5.72-1.3,1.61,1.61,0,0,1,.61,1.3c-1.65,1.11-4.61,2.59-6.94,2.59C178.94,62.23,176.78,58.41,176.78,53.52Zm3.09-2.2h3.53c1.91,0,3.49-.07,4.39-.14,0-2.3-.54-4.54-3.74-4.54a4.37,4.37,0,0,0-2.45.69A7.49,7.49,0,0,0,179.87,51.32Z"/><path class="cls-3" d="M101.84,31.14v38c2.39-.16,1.93.12,3,0V31.09l-.33-.34a15.66,15.66,0,0,0-2.72.39"/></g><g id="Dot"><path class="cls-4" d="M197.07,57.48a2.34,2.34,0,0,1,2.48,2.3,2.49,2.49,0,0,1-5,0A2.34,2.34,0,0,1,197.07,57.48Z"/></g></svg>